<?xml version="1.0" encoding="UTF-8" standalone="no"?>
<svg
   viewBox="0 0 512 512"
   version="1.1"
   id="svg4"
   sodipodi:docname="record-vinyl-solid-white.svg"
   inkscape:version="1.1.1 (3bf5ae0d25, 2021-09-20)"
   xmlns:inkscape="http://www.inkscape.org/namespaces/inkscape"
   xmlns:sodipodi="http://sodipodi.sourceforge.net/DTD/sodipodi-0.dtd"
   xmlns="http://www.w3.org/2000/svg"
   xmlns:svg="http://www.w3.org/2000/svg">
  <defs
     id="defs8" />
  <sodipodi:namedview
     id="namedview6"
     pagecolor="#ffffff"
     bordercolor="#666666"
     borderopacity="1.0"
     inkscape:pageshadow="2"
     inkscape:pageopacity="0.0"
     inkscape:pagecheckerboard="0"
     showgrid="false"
     inkscape:zoom="1.6171875"
     inkscape:cx="256.30918"
     inkscape:cy="256.30918"
     inkscape:window-width="1920"
     inkscape:window-height="991"
     inkscape:window-x="-9"
     inkscape:window-y="-9"
     inkscape:window-maximized="1"
     inkscape:current-layer="svg4" />
  <!--! Font Awesome Pro 6.0.0 by @fontawesome - https://fontawesome.com License - https://fontawesome.com/license (Commercial License) Copyright 2022 Fonticons, Inc. -->
  <path
     d="M256 160C202.9 160 160 202.9 160 256s42.92 96 96 96c53.08 0 96-42.92 96-96S309.1 160 256 160zM256 288C238.3 288 224 273.7 224 256s14.33-32 32-32c17.67 0 32 14.33 32 32S273.7 288 256 288zM256 0c-141.4 0-256 114.6-256 256s114.6 256 256 256c141.4 0 256-114.6 256-256S397.4 0 256 0zM256 384c-70.75 0-128-57.25-128-128s57.25-128 128-128s128 57.25 128 128S326.8 384 256 384z"
     id="path2"
     style="stroke:#000000;stroke-opacity:1;fill:#ffffff" />
</svg>
