<?xml version="1.0" encoding="UTF-8" standalone="no"?>
<svg
   id="Layer_1"
   viewBox="0 0 2931 2931"
   width="2931"
   height="2931"
   version="1.1"
   sodipodi:docname="spotify-logo.svg"
   inkscape:version="1.1.1 (3bf5ae0d25, 2021-09-20)"
   xmlns:inkscape="http://www.inkscape.org/namespaces/inkscape"
   xmlns:sodipodi="http://sodipodi.sourceforge.net/DTD/sodipodi-0.dtd"
   xmlns="http://www.w3.org/2000/svg"
   xmlns:svg="http://www.w3.org/2000/svg">
  <defs
     id="defs9" />
  <sodipodi:namedview
     id="namedview7"
     pagecolor="#ffffff"
     bordercolor="#666666"
     borderopacity="1.0"
     inkscape:pageshadow="2"
     inkscape:pageopacity="0.0"
     inkscape:pagecheckerboard="0"
     showgrid="false"
     inkscape:zoom="0.28249744"
     inkscape:cx="1463.7301"
     inkscape:cy="1463.7301"
     inkscape:window-width="1920"
     inkscape:window-height="991"
     inkscape:window-x="-9"
     inkscape:window-y="-9"
     inkscape:window-maximized="1"
     inkscape:current-layer="Layer_1" />
  <style
     id="style2">.st0{fill:#2ebd59}</style>
  <path
     class="st0"
     d="M1465.5 0C656.1 0 0 656.1 0 1465.5S656.1 2931 1465.5 2931 2931 2274.9 2931 1465.5C2931 656.2 2274.9.1 1465.5 0zm672.1 2113.6c-26.3 43.2-82.6 56.7-125.6 30.4-344.1-210.3-777.3-257.8-1287.4-141.3-49.2 11.3-98.2-19.5-109.4-68.7-11.3-49.2 19.4-98.2 68.7-109.4C1242.1 1697.1 1721 1752 2107.3 1988c43 26.5 56.7 82.6 30.3 125.6zm179.3-398.9c-33.1 53.8-103.5 70.6-157.2 37.6-393.8-242.1-994.4-312.2-1460.3-170.8-60.4 18.3-124.2-15.8-142.6-76.1-18.2-60.4 15.9-124.1 76.2-142.5 532.2-161.5 1193.9-83.3 1646.2 194.7 53.8 33.1 70.8 103.4 37.7 157.1zm15.4-415.6c-472.4-280.5-1251.6-306.3-1702.6-169.5-72.4 22-149-18.9-170.9-91.3-21.9-72.4 18.9-149 91.4-171 517.7-157.1 1378.2-126.8 1922 196 65.1 38.7 86.5 122.8 47.9 187.8-38.5 65.2-122.8 86.7-187.8 48z"
     id="path4"
     style="fill:#ffffff;stroke:none;stroke-opacity:1" />
</svg>
