<?xml version="1.0" encoding="UTF-8" standalone="no"?>
<svg
   viewBox="0 0 448 512"
   version="1.1"
   id="svg4"
   sodipodi:docname="paperclip-solid.svg"
   inkscape:version="1.1.1 (3bf5ae0d25, 2021-09-20)"
   xmlns:inkscape="http://www.inkscape.org/namespaces/inkscape"
   xmlns:sodipodi="http://sodipodi.sourceforge.net/DTD/sodipodi-0.dtd"
   xmlns="http://www.w3.org/2000/svg"
   xmlns:svg="http://www.w3.org/2000/svg">
  <defs
     id="defs8" />
  <sodipodi:namedview
     id="namedview6"
     pagecolor="#ffffff"
     bordercolor="#666666"
     borderopacity="1.0"
     inkscape:pageshadow="2"
     inkscape:pageopacity="0.0"
     inkscape:pagecheckerboard="0"
     showgrid="false"
     inkscape:zoom="1.6171875"
     inkscape:cx="224.15459"
     inkscape:cy="256.30918"
     inkscape:window-width="1920"
     inkscape:window-height="991"
     inkscape:window-x="-9"
     inkscape:window-y="-9"
     inkscape:window-maximized="1"
     inkscape:current-layer="svg4" />
  <!--! Font Awesome Pro 6.1.1 by @fontawesome - https://fontawesome.com License - https://fontawesome.com/license (Commercial License) Copyright 2022 Fonticons, Inc. -->
  <path
     d="M364.2 83.8C339.8 59.39 300.2 59.39 275.8 83.8L91.8 267.8C49.71 309.9 49.71 378.1 91.8 420.2C133.9 462.3 202.1 462.3 244.2 420.2L396.2 268.2C407.1 257.3 424.9 257.3 435.8 268.2C446.7 279.1 446.7 296.9 435.8 307.8L283.8 459.8C219.8 523.8 116.2 523.8 52.2 459.8C-11.75 395.8-11.75 292.2 52.2 228.2L236.2 44.2C282.5-2.08 357.5-2.08 403.8 44.2C450.1 90.48 450.1 165.5 403.8 211.8L227.8 387.8C199.2 416.4 152.8 416.4 124.2 387.8C95.59 359.2 95.59 312.8 124.2 284.2L268.2 140.2C279.1 129.3 296.9 129.3 307.8 140.2C318.7 151.1 318.7 168.9 307.8 179.8L163.8 323.8C157.1 330.5 157.1 341.5 163.8 348.2C170.5 354.9 181.5 354.9 188.2 348.2L364.2 172.2C388.6 147.8 388.6 108.2 364.2 83.8V83.8z"
     id="path2"
     style="fill:#1e90ff;fill-opacity:1" />
</svg>
